<?xml version="1.0" encoding="UTF-8" standalone="no"?>
<!-- Created with Inkscape (http://www.inkscape.org/) -->

<!--suppress XmlUnusedNamespaceDeclaration -->
<svg
   width="48"
   height="48"
   viewBox="0 0 12.7 12.7"
   version="1.1"
   id="svg5"
   xmlns="http://www.w3.org/2000/svg"
   xmlns:svg="http://www.w3.org/2000/svg">
  <defs
     id="defs2" />
  <g
     id="layer1">
    <g
       aria-label="o sitelen+pona"
       id="text121"
       style="font-size:10.6462px;font-family:'sitelen seli kiwen asuki';-inkscape-font-specification:'sitelen seli kiwen asuki, Normal';fill:#ffffff;stroke:#303030;stroke-width:1.05833;paint-order:stroke markers fill">
      <path
         d="m 3.8918121,8.5673366 q 0,0.266155 -0.095816,0.4471404 -0.095816,0.1809854 -0.1916316,0.266155 -0.095816,0.08517 -0.095816,0.1171082 0,0.053231 -0.266155,0.319386 -0.2555088,0.2555088 -0.425848,0.3832628 -0.2448626,0.180986 -0.958158,0.180986 -0.2980936,0 -0.2980936,-0.07452 0,-0.03194 -0.2768012,-0.180985 -0.2768012,-0.1490468 -0.38326323,-0.3300322 -0.106462,-0.1916316 -0.106462,-0.5429562 0,-0.6174796 0.34067843,-0.9475118 0.1916316,-0.1916317 0.2342164,-0.1916317 0.042585,0 0.063877,-0.095816 0,-0.021292 0.074523,-0.106462 0.074523,-0.08517 0.2555088,-0.1809854 0.1916316,-0.106462 0.4152018,-0.106462 0.2874474,0 0.6494182,0.08517 0.3619708,0.08517 0.7132954,0.3406784 0.3513246,0.2448627 0.3513246,0.6174797 z m -2.448626,0.4577866 q 0,0.1171082 0.1384006,0.3300322 0.1490468,0.2022778 0.4045556,0.2022778 0.425848,0 0.5536024,-0.063877 0.1384006,-0.074523 0.3619708,-0.372617 0.266155,-0.3513246 0.266155,-0.5110176 0,-0.106462 -0.042585,-0.1703392 -0.031939,-0.063877 -0.08517,-0.08517 -0.053231,-0.031939 -0.159693,-0.074523 -0.2342164,-0.095816 -0.4684328,-0.095816 -0.095816,0 -0.2235702,0.042585 -0.1171082,0.031939 -0.2022778,0.074523 -0.074523,0.042585 -0.074523,0.063877 0,0.031939 -0.095816,0.074523 -0.074523,0.021292 -0.1703392,0.1703392 -0.08517,0.1384006 -0.08517,0.2342164 0,0.042585 -0.063877,0.08517 -0.053231,0.031939 -0.053231,0.095816 z M 2.3906979,2.5096487 q 0.074523,0 0.1916316,0.031939 l 0.1171082,0.031939 q 0.031939,0 0.063877,0.2022778 0.042585,0.1916316 0.042585,0.3513246 v 0.08517 q 0,0.1703392 0.010646,0.3832632 0.021292,0.2022778 0.021292,0.319386 0,0.3087398 -0.053231,0.851696 -0.042585,0.5429562 -0.042585,0.8623422 0,0.159693 0.010646,0.2768012 0.010646,0.1171082 0.010646,0.1809854 0.010646,0.063877 0.010646,0.074523 -0.031939,0.3832632 -0.2235702,0.3832632 -0.031939,0 -0.095816,-0.031939 -0.1171082,-0.063877 -0.1490468,0.021292 -0.031939,0.074523 -0.1809854,-0.021292 -0.1277544,-0.074523 -0.1277544,-0.2235702 0,-0.042585 0.063877,-0.212924 0.074523,-0.1809854 0.08517,-0.6281258 0,-0.3087398 0.031939,-0.7026492 0.042585,-0.4045556 0.042585,-0.745234 0,-0.042585 -0.063877,-0.4471404 -0.063877,-0.4045556 -0.063877,-0.5961872 0,-0.4471404 0.2980936,-0.4471404 z"
         id="path307" />
      <path
         d="m 6.8727463,6.5232661 q 0,-0.1277544 0.053231,-0.2022778 0.063877,-0.074523 0.1277544,-0.08517 l 0.063877,-0.010646 q 0.08517,0 0.2768012,0.106462 0.2022778,0.106462 0.2022778,0.1809854 0,0.031939 0.021292,0.106462 0.021292,0.074523 0.095816,0.2022778 0.074523,0.1277544 0.1809854,0.2448626 0.106462,0.106462 0.2980936,0.1916316 0.2022778,0.074523 0.4471404,0.074523 0.3087399,0 0.3939095,-0.106462 0.095816,-0.106462 0.159693,-0.5003714 l 0.063877,-0.3939094 0.2342164,-0.063877 q 0.074523,-0.021292 0.212924,-0.021292 0.2874474,0 0.2874474,0.1277544 -0.1809854,1.0326814 -0.3513246,1.1391434 -0.095816,0.053231 -0.095816,0.1277544 0,0.095816 -0.1809854,0.1171082 -0.1703392,0.021292 -0.1703392,0.074523 0,0.095816 -0.212924,0.1490468 -0.2022779,0.042585 -0.2980937,0.042585 -0.4364942,0 -0.745234,-0.1171083 Q 7.6286265,7.7795177 7.5115183,7.6304709 7.3944101,7.4814241 7.2985943,7.3430235 7.2134247,7.1939767 7.1708399,7.1833305 7.1069627,7.1620381 6.9898545,6.9384679 6.8727463,6.7042515 6.8727463,6.5232661 Z M 8.1077055,4.2769179 q 0,-0.1916316 0.1384006,-0.2980936 0.1384006,-0.106462 0.2980936,-0.106462 0.159693,0 0.2022778,0.106462 0.095816,0.1809854 0.106462,0.2022778 0.010646,0.010646 0.010646,0.031939 0.010646,0.010646 0.010646,0.031939 0,0.1171082 -0.1384006,0.2448626 -0.1384006,0.1171082 -0.2448626,0.1171082 -0.1171082,0 -0.2555088,-0.08517 -0.1277544,-0.08517 -0.1277544,-0.2448626 z m -0.585541,0 q 0,0.053231 -0.021292,0.1171082 -0.010646,0.053231 -0.1171082,0.1384006 -0.106462,0.08517 -0.2980936,0.08517 -0.1703392,0 -0.2342164,-0.042585 Q 6.7982229,4.5324267 6.7769305,4.3940261 6.7449919,4.2449793 6.8940387,4.0639939 l 0.159693,-0.1809854 0.1916316,0.074523 q 0.2768012,0.1171082 0.2768012,0.319386 z m 2.5870265,-0.074523 q 0,0.042585 0,0.074523 0,0.021292 -0.02129,0.08517 -0.02129,0.063877 -0.06388,0.106462 -0.031939,0.031939 -0.1171086,0.063877 -0.074523,0.031939 -0.1916316,0.031939 -0.1384006,0 -0.212924,-0.042585 -0.063877,-0.053231 -0.074523,-0.106462 -0.010646,-0.063877 -0.021292,-0.2022778 -0.010646,-0.1916316 0,-0.2342164 0.010646,-0.053231 0.08517,-0.074523 0.106462,-0.042585 0.106462,-0.08517 0.010646,-0.031939 0.074523,-0.010646 0.063877,0.010646 0.2555088,0.095816 0.1809852,0.074523 0.1809852,0.2980936 z M 7.8415505,9.6213104 q -0.212924,0 -0.8197574,0.053231 -0.5961872,0.042585 -0.7665264,0.042585 -0.2235702,0 -0.3513246,-0.053231 Q 5.7868339,9.600018 5.7548953,9.546787 5.7336029,9.493556 5.7229567,9.387094 q -0.010646,-0.08517 -0.010646,-0.1703392 0,-0.1490468 0.053231,-0.372617 0.053231,-0.2235702 0.053231,-0.3406784 0,-0.021292 -0.031939,-0.1490468 -0.021292,-0.1277544 0,-0.2448626 0.031939,-0.2768013 0.031939,-0.5323101 0,-0.3513246 -0.053231,-0.5536024 -0.053231,-0.212924 -0.106462,-0.2874474 -0.042585,-0.074523 -0.042585,-0.08517 0,-0.021292 0.010646,-0.042585 0.031939,-0.042585 0.031939,-0.1916316 0,-0.095816 -0.010646,-0.1703392 -0.010646,-0.08517 -0.031939,-0.1384006 -0.010646,-0.053231 -0.031939,-0.08517 -0.010646,-0.042585 -0.031939,-0.053231 -0.010646,-0.021292 -0.021292,-0.031939 -0.010646,-0.021292 -0.010646,-0.042585 0,0 0,-0.010646 0,-0.010646 0,-0.031939 0.010646,-0.021292 0.021292,-0.053231 0.010646,-0.031939 0.010646,-0.074523 0.010646,-0.042585 0.010646,-0.08517 0.010646,-0.053231 0.010646,-0.1171082 0.010646,-0.063877 0.010646,-0.1277544 0,-0.1277544 -0.021292,-0.1277544 -0.021292,0 -0.021292,-0.042585 0,-0.021292 0,-0.08517 0.010646,-0.063877 0.010646,-0.1490468 0.010646,-0.095816 0.010646,-0.2555088 0.010646,-0.1703392 0.010646,-0.3619708 0,-0.9368656 -0.063877,-1.1497896 -0.031939,-0.1277544 -0.031939,-0.212924 0,-0.106462 0.063877,-0.212924 0.063877,-0.1171082 0.063877,-0.212924 0,-0.010646 0,-0.031939 0.010646,-0.031939 0.031939,-0.063877 0.021292,-0.042585 0.053231,-0.063877 0.031939,-0.031939 0.095816,-0.053231 0.063877,-0.021292 0.1490468,-0.021292 0.042585,0 0.08517,0 0.7345878,0.08517 2.4379798,0.08517 h 0.063877 q 0.053231,0 0.1490468,0 0.095816,0 0.2022778,0 0.1064621,-0.010646 0.2235703,-0.010646 0.1277544,0 0.2235702,0 0.095816,0 0.2235702,0 0.1277544,0 0.2448626,0.010646 0.1277544,0 0.2342168,0 0.106462,0 0.180985,0 h 0.06388 q 0.127755,0 0.22357,0 0.106462,-0.010646 0.17034,-0.010646 0.07452,-0.010646 0.127754,-0.021292 0.05323,-0.010646 0.08517,-0.010646 0.03194,-0.010646 0.05323,-0.021292 0.03194,-0.010646 0.05323,-0.010646 0.02129,-0.010646 0.04258,-0.010646 l 0.09582,0.021292 q 0.149047,0.042585 0.191632,0.2448626 0.05323,0.2022778 0.06388,0.5216638 0.02129,0.319386 0.06388,0.479079 l 0.02129,0.1277544 q 0,0.042585 -0.02129,0.106462 -0.02129,0.063877 -0.02129,0.1384006 0,0.074523 0.01065,0.159693 0.03194,0.159693 0.03194,0.3939094 0,0.3087398 0.03194,0.3513246 0.05323,0.063877 0.09582,1.5649914 0.04259,1.5011142 0.06388,1.5543452 0.01065,0.031939 0.08517,0.4577867 0.07452,0.425848 0.149047,0.6600644 0.03194,0.1171082 0.01065,0.3300322 -0.02129,0.159693 -0.09582,0.212924 -0.07452,0.042585 -0.30874,0.042585 h -0.05323 q -0.05323,0 -0.149047,0 -0.09581,0 -0.212924,0 -0.117108,-0.010646 -0.276801,-0.010646 -0.149047,0 -0.298093,0 -0.340679,0 -0.670711,0.010646 -0.319386,0 -0.53231,0.010646 -0.2022778,0 -0.2448626,0 -0.3832633,0 -0.7132955,-0.053231 -0.319386,-0.053231 -0.5003714,-0.053231 z M 10.939595,6.3848655 V 6.1400029 q 0,-0.7771726 -0.09582,-1.6395148 0,-0.042585 -0.03194,-0.3300322 -0.03194,-0.2980936 -0.04258,-0.4152018 -0.05323,-0.6707106 -0.234217,-0.692003 -0.489725,-0.053231 -0.6707104,-0.053231 -0.021292,0 -0.074523,0 -0.042585,0 -0.074523,0 -0.3619708,0 -0.7132954,0.042585 -0.3513247,0.042585 -0.9368657,0.042585 -0.010646,0 -0.5642486,0 L 6.9579159,3.0845435 q -0.5748948,0 -0.638772,0.031939 -0.063877,0.031939 -0.08517,0.2874474 -0.021292,0.2448626 -0.021292,0.745234 0,0.053231 0,0.159693 0,0.106462 0,0.159693 0,0.585541 0.042585,0.8410498 0.053231,0.2448626 0.053231,0.5216638 v 0.1809854 q 0,0.3087398 0.042585,0.5642486 0.053231,0.2448626 0.053231,0.4045556 0,0.3406784 0.042585,0.3619708 0.031939,0.021292 0.031939,0.106462 0,0.042585 -0.010646,0.1490468 -0.010646,0.095816 -0.010646,0.1384006 0,0.053231 0.010646,0.074523 0.021292,0.031939 0.042585,0.5003715 0.031939,0.4577866 0.074523,0.4897252 0.053231,0.031939 0.074523,0.106462 0.031939,0.106462 2.4166875,0.106462 1.1604362,0 1.5011142,-0.021292 L 11.077995,8.961246 V 8.6737986 q 0,-0.031939 0,-0.053231 0,-0.1916316 -0.05323,-0.5536024 -0.04258,-0.3619709 -0.04258,-0.5216639 0,-0.095816 0.01065,-0.2022778 0.01065,-0.106462 0.01065,-0.2235702 0,-0.1703392 -0.03194,-0.372617 -0.03194,-0.212924 -0.03194,-0.3619708 z"
         id="path309" />
    </g>
  </g>
</svg>
